# xmcd CD database file
#
# Track frame offsets:
#	150
#	26397
#	49221
#	80190
#	107039
#	129870
#	147874
#	179514
#	204743
#	231602
#
# Disc length: 3735 seconds
#
# Revision: 0
# Processed by: cddbd v1.5.2PL0 Copyright (c) Steve Scherf et al.
# Submitted via: CDex 1.77
#
DISCID=900e950a
DTITLE=Solitudes - Costa Rica
DYEAR=1900
DGENRE=New Age
TTITLE0=Into the Clouds
TTITLE1=Arenal teh restless Giant
TTITLE2=Walking on Air
TTITLE3=Sanctuary in the Mist
TTITLE4=Forest legend
TTITLE5=Echoes
TTITLE6=Pura Vida
TTITLE7=In Search of the Green Turtle
TTITLE8=Coastal Paradise
TTITLE9=Drifting on the Reef
EXTD=
EXTT0=
EXTT1=
EXTT2=
EXTT3=
EXTT4=
EXTT5=
EXTT6=
EXTT7=
EXTT8=
EXTT9=
PLAYORDER=
